<svg width="20" height="20" viewBox="0 0 20 20" fill="none" xmlns="http://www.w3.org/2000/svg">
<path d="M19.375 19.375H18.75C16.1811 19.3749 13.6983 18.4487 11.7568 16.7663L11.0995 16.1966C10.7341 16.2321 10.3672 16.25 10 16.25C7.51848 16.25 5.18027 15.4519 3.41609 14.0028C1.61621 12.5243 0.625 10.5479 0.625 8.4375C0.625 6.32715 1.61621 4.35066 3.41609 2.87223C5.18027 1.42309 7.51848 0.625 10 0.625C12.4815 0.625 14.8197 1.42309 16.5839 2.87223C18.3838 4.35066 19.375 6.32715 19.375 8.4375C19.3741 9.55931 19.091 10.6629 18.5517 11.6465C18.0835 12.5032 17.4601 13.2654 16.7132 13.8941C17.2714 15.3134 18.115 16.6031 19.1919 17.6831L19.375 17.8661V19.375ZM11.5022 14.8915L12.5755 15.8217C14.0559 17.1046 15.899 17.8946 17.8489 18.0819C16.7731 16.8793 15.9422 15.4783 15.403 13.9575L15.2313 13.4707L15.591 13.1946C17.2251 11.9405 18.125 10.2511 18.125 8.4375C18.125 4.81891 14.4801 1.875 10 1.875C5.51988 1.875 1.875 4.81891 1.875 8.4375C1.875 12.0561 5.51988 15 10 15C10.41 15 10.8196 14.975 11.2266 14.9253L11.5022 14.8915Z" fill="#333333"/>
</svg>
