<svg width="18" height="18" viewBox="0 0 18 18" fill="none" xmlns="http://www.w3.org/2000/svg">
<path d="M14.0257 12.8469L17.5948 16.4152L16.4157 17.5943L12.8473 14.0252C11.5196 15.0895 9.86817 15.6684 8.1665 15.666C4.0265 15.666 0.666504 12.306 0.666504 8.16602C0.666504 4.02602 4.0265 0.666016 8.1665 0.666016C12.3065 0.666016 15.6665 4.02602 15.6665 8.16602C15.6689 9.86768 15.09 11.5191 14.0257 12.8469ZM12.354 12.2285C13.4116 11.1409 14.0022 9.68304 13.9998 8.16602C13.9998 4.94268 11.389 2.33268 8.1665 2.33268C4.94317 2.33268 2.33317 4.94268 2.33317 8.16602C2.33317 11.3885 4.94317 13.9993 8.1665 13.9993C9.68353 14.0017 11.1414 13.4111 12.229 12.3535L12.354 12.2285V12.2285Z" fill="#A1A1A1"/>
</svg>
